<svg viewBox="0 0 800 600" xmlns="http://www.w3.org/2000/svg">
  <!-- 背景と基本グラデーション -->
  <defs>
    <linearGradient id="bgGradient" x1="0%" y1="0%" x2="100%" y2="100%">
      <stop offset="0%" stop-color="#f5f7fa" />
      <stop offset="100%" stop-color="#e4e8ed" />
    </linearGradient>
    
    <linearGradient id="cardGradient" x1="0%" y1="0%" x2="100%" y2="100%">
      <stop offset="0%" stop-color="#ffffff" />
      <stop offset="100%" stop-color="#f5f5f5" />
    </linearGradient>
    
    <filter id="dropShadow" x="-20%" y="-20%" width="140%" height="140%">
      <feGaussianBlur in="SourceAlpha" stdDeviation="3" />
      <feOffset dx="2" dy="2" result="offsetblur" />
      <feComponentTransfer>
        <feFuncA type="linear" slope="0.3" />
      </feComponentTransfer>
      <feMerge>
        <feMergeNode />
        <feMergeNode in="SourceGraphic" />
      </feMerge>
    </filter>
    
    <filter id="stampEffect" x="-20%" y="-20%" width="140%" height="140%">
      <feTurbulence type="turbulence" baseFrequency="0.05" numOctaves="2" result="turbulence"/>
      <feDisplacementMap in="SourceGraphic" in2="turbulence" scale="2" xChannelSelector="R" yChannelSelector="G"/>
    </filter>
    
    <pattern id="patternDots" width="10" height="10" patternUnits="userSpaceOnUse">
      <circle cx="2" cy="2" r="1" fill="#e0e0e0" />
    </pattern>
  </defs>
  
  <!-- 背景 -->
  <rect width="800" height="600" fill="url(#bgGradient)" />
  <rect width="800" height="600" fill="url(#patternDots)" opacity="0.5" />
  
  <!-- 装飾的な会場マップの抽象表現 -->
  <g opacity="0.2">
    <path d="M100,150 L250,150 L250,250 L350,250 L350,150 L500,150 L500,300 L650,300 L650,450 L450,450 L450,350 L200,350 L200,450 L100,450 Z" 
          fill="none" stroke="#555" stroke-width="2" stroke-dasharray="5,5" />
    
    <!-- ブース表現 -->
    <rect x="120" y="170" width="100" height="60" rx="5" stroke="#555" stroke-width="1" fill="#fff" opacity="0.7" />
    <rect x="370" y="170" width="100" height="60" rx="5" stroke="#555" stroke-width="1" fill="#fff" opacity="0.7" />
    <rect x="520" y="220" width="100" height="60" rx="5" stroke="#555" stroke-width="1" fill="#fff" opacity="0.7" />
    <rect x="520" y="370" width="100" height="60" rx="5" stroke="#555" stroke-width="1" fill="#fff" opacity="0.7" />
    <rect x="300" y="370" width="100" height="60" rx="5" stroke="#555" stroke-width="1" fill="#fff" opacity="0.7" />
    <rect x="120" y="370" width="60" height="60" rx="5" stroke="#555" stroke-width="1" fill="#fff" opacity="0.7" />
  </g>
  
  <!-- スタンプラリーカード -->
  <g filter="url(#dropShadow)" transform="translate(240, 150)">
    <rect x="0" y="0" width="320" height="220" rx="10" fill="url(#cardGradient)" stroke="#ccc" stroke-width="1" />
    
    <!-- カードタイトル -->
    <text x="160" y="30" font-family="Arial, sans-serif" font-size="18" fill="#333" text-anchor="middle" font-weight="bold">スタンプラリー</text>
    
    <!-- スタンプ枠 -->
    <g>
      <!-- 1列目 -->
      <circle cx="60" cy="80" r="25" fill="white" stroke="#888" stroke-width="1" stroke-dasharray="3,2" />
      <circle cx="160" cy="80" r="25" fill="white" stroke="#888" stroke-width="1" stroke-dasharray="3,2" />
      <circle cx="260" cy="80" r="25" fill="white" stroke="#888" stroke-width="1" stroke-dasharray="3,2" />
      
      <!-- 2列目 -->
      <circle cx="60" cy="160" r="25" fill="white" stroke="#888" stroke-width="1" stroke-dasharray="3,2" />
      <circle cx="160" cy="160" r="25" fill="white" stroke="#888" stroke-width="1" stroke-dasharray="3,2" />
      <circle cx="260" cy="160" r="25" fill="white" stroke="#888" stroke-width="1" stroke-dasharray="3,2" />
      
      <!-- ブース番号 -->
      <text x="60" y="85" font-family="Arial, sans-serif" font-size="12" fill="#888" text-anchor="middle">A</text>
      <text x="160" y="85" font-family="Arial, sans-serif" font-size="12" fill="#888" text-anchor="middle">B</text>
      <text x="260" y="85" font-family="Arial, sans-serif" font-size="12" fill="#888" text-anchor="middle">C</text>
      <text x="60" y="165" font-family="Arial, sans-serif" font-size="12" fill="#888" text-anchor="middle">D</text>
      <text x="160" y="165" font-family="Arial, sans-serif" font-size="12" fill="#888" text-anchor="middle">E</text>
      <text x="260" y="165" font-family="Arial, sans-serif" font-size="12" fill="#888" text-anchor="middle">F</text>
    </g>
    
    <!-- 既に集めたスタンプの表現 -->
    <g filter="url(#stampEffect)">
      <circle cx="60" cy="80" r="22" fill="#FF5252" opacity="0.8" />
      <text x="60" y="85" font-family="Arial, sans-serif" font-size="18" fill="white" text-anchor="middle" font-weight="bold">A</text>
      
      <circle cx="160" cy="80" r="22" fill="#4CAF50" opacity="0.8" />
      <text x="160" y="85" font-family="Arial, sans-serif" font-size="18" fill="white" text-anchor="middle" font-weight="bold">B</text>
    </g>
  </g>
  
  <!-- 特典アイコン -->
  <g transform="translate(520, 220)">
    <!-- 特典の袋 -->
    <path d="M0,30 C0,20 10,0 40,0 C70,0 80,20 80,30 L80,100 L0,100 Z" fill="#FFC107" filter="url(#dropShadow)" />
    <path d="M0,40 C0,40 20,50 40,40 C60,50 80,40 80,40" fill="none" stroke="#EF6C00" stroke-width="2" />
    
    <!-- キラキラエフェクト -->
    <g>
      <path d="M20,20 L25,10 L30,20 L40,25 L30,30 L25,40 L20,30 L10,25 Z" fill="white" opacity="0.8" />
      <path d="M60,15 L65,5 L70,15 L80,20 L70,25 L65,35 L60,25 L50,20 Z" fill="white" opacity="0.8" />
      <path d="M40,60 L45,50 L50,60 L60,65 L50,70 L45,80 L40,70 L30,65 Z" fill="white" opacity="0.6" />
    </g>
    
    <!-- ラベル -->
    <rect x="10" y="50" width="60" height="25" rx="5" fill="white" opacity="0.8" />
    <text x="40" y="67" font-family="Arial, sans-serif" font-size="14" fill="#333" text-anchor="middle" font-weight="bold">特典</text>
  </g>
  
  <!-- 人物アイコン（参加者） -->
  <g transform="translate(390, 400)">
    <!-- 頭 -->
    <circle cx="0" cy="0" r="20" fill="#64B5F6" />
    
    <!-- 体 -->
    <path d="M-15,20 C-15,20 -10,50 0,60 C10,50 15,20 15,20 Z" fill="#64B5F6" />
    
    <!-- 腕 -->
    <path d="M-15,25 C-15,25 -30,20 -40,35" fill="none" stroke="#64B5F6" stroke-width="8" stroke-linecap="round" />
    <path d="M15,25 C15,25 40,15 55,25" fill="none" stroke="#64B5F6" stroke-width="8" stroke-linecap="round" />
    
    <!-- スタンプカード -->
    <rect x="30" y="25" width="30" height="20" fill="white" stroke="#888" stroke-width="1" />
    <line x1="35" y1="30" x2="55" y2="30" stroke="#888" stroke-width="1" />
    <line x1="35" y1="35" x2="55" y2="35" stroke="#888" stroke-width="1" />
    <line x1="35" y1="40" x2="55" y2="40" stroke="#888" stroke-width="1" />
    
    <!-- 動きを表す線 -->
    <path d="M-50,-20 C-40,-10 -10,-20 0,-30 C10,-20 40,-10 50,-20" fill="none" stroke="#BBE" stroke-width="2" stroke-dasharray="3,3" />
    <polygon points="50,-20 45,-15 40,-25" fill="#BBE" />
  </g>
  
  <!-- 会場回遊を示す矢印 -->
  <g stroke="#2196F3" stroke-width="3" fill="none" stroke-linecap="round" stroke-linejoin="round" opacity="0.7">
    <path d="M200,120 C220,110 280,110 300,120" />
    <polygon points="300,120 290,110 295,125" fill="#2196F3" />
    
    <path d="M500,200 C520,220 520,280 500,300" />
    <polygon points="500,300 495,285 510,290" fill="#2196F3" />
    
    <path d="M450,400 C420,410 380,410 350,400" />
    <polygon points="350,400 360,390 365,405" fill="#2196F3" />
    
    <path d="M150,300 C130,280 130,220 150,200" />
    <polygon points="150,200 155,215 140,210" fill="#2196F3" />
  </g>
  
  <!-- メインタイトル -->
  <g>
    <text x="400" y="80" font-family="Arial, sans-serif" font-size="36" fill="#333" text-anchor="middle" font-weight="bold">スタンプラリー</text>
    <text x="400" y="110" font-family="Arial, sans-serif" font-size="16" fill="#666" text-anchor="middle">全ブースを回って特典をゲット！</text>
  </g>
  
  <!-- コンプリート表示 -->
  <g transform="translate(80, 200)">
    <path d="M0,0 L100,0 L120,20 L120,80 L0,80 Z" fill="#E3F2FD" stroke="#1976D2" stroke-width="2" filter="url(#dropShadow)" />
    <path d="M100,0 L100,20 L120,20" fill="none" stroke="#1976D2" stroke-width="2" />
    <text x="60" y="30" font-family="Arial, sans-serif" font-size="14" fill="#1976D2" text-anchor="middle">コンプリート</text>
    <text x="60" y="50" font-family="Arial, sans-serif" font-size="12" fill="#1976D2" text-anchor="middle">特典引換券</text>
    <line x1="20" y1="65" x2="100" y2="65" stroke="#1976D2" stroke-width="1" stroke-dasharray="2,2" />
  </g>
  
  <!-- 回遊性を高めるメッセージ -->
  <g transform="translate(600, 480)">
    <rect x="-100" y="-30" width="200" height="60" rx="10" fill="#FFF9C4" stroke="#FBC02D" stroke-width="2" filter="url(#dropShadow)" />
    <text x="0" y="-5" font-family="Arial, sans-serif" font-size="14" fill="#F57F17" text-anchor="middle" font-weight="bold">会場内の回遊性UP!</text>
    <text x="0" y="15" font-family="Arial, sans-serif" font-size="12" fill="#F57F17" text-anchor="middle">全ブースを巡ってスタンプを集めよう</text>
  </g>
</svg>